<?xml version="1.0" standalone="no"?>
<!DOCTYPE svg PUBLIC "-//W3C//DTD SVG 1.1//EN" "http://www.w3.org/Graphics/SVG/1.1/DTD/svg11.dtd" >
<svg xmlns="http://www.w3.org/2000/svg">
<metadata>Generated by IcoMoon</metadata>
<defs>
<font id="icomoon" horiz-adv-x="1024">
<font-face units-per-em="1024" ascent="960" descent="-64" />
<missing-glyph horiz-adv-x="1024" />
<glyph unicode="&#x20;" horiz-adv-x="512" d="" />
<glyph unicode="&#xe900;" glyph-name="battery" d="M136.237 286.905v322.041h536.786v-322.041h-536.786zM941.337 582.16q22.313 0 38.017-15.853t15.853-37.942v-161.020q0-22.238-15.78-37.942t-37.871-15.78v-67.008q0-27.667-19.669-47.41t-47.41-19.594h-778.536q-27.667 0-47.41 19.669t-19.669 47.41v402.55q0 27.667 19.669 47.485t47.41 19.594h778.389q27.667 0 47.41-19.669t19.669-47.485v-66.933zM941.337 367.344v161.095h-53.576v120.802q0 5.871-3.669 9.688t-9.759 3.669h-778.389q-5.871 0-9.541-3.669t-3.964-9.688v-402.625q0-5.871 3.89-9.688t9.541-3.669h778.462q5.871 0 9.688 3.669t3.669 9.688v120.802h53.723z" />
<glyph unicode="&#xe901;" glyph-name="browser" d="M344.174-13.063c20.938 23.096 41.336 45.869 62.058 68.317 78.246 84.615 158.328 167.718 234.956 254.060 66.915 75.009 70.692 162.754 15.866 247.152-1.403 2.159-2.159 4.641-3.562 8.311 86.341 15.65 171.603 31.73 256.866 46.408 38.853 6.691 39.717 5.612 50.726-33.025 46.84-165.991 12.951-315.794-96.055-447.896-84.83-102.098-196.21-155.522-327.45-169.552-60.008-6.26-152.824 6.044-193.513 26.226zM16.077 444.006c0.863 135.555 51.265 250.174 146.781 345.689 14.894 14.786 15.11 14.786 21.585-6.152 41.012-132.102 80.621-264.744 123.684-396.090 22.125-67.67 68.426-115.158 139.226-133.829 16.189-4.317 16.621-9.066 8.634-22.233-44.898-72.634-89.147-145.486-132.642-218.875-7.986-13.383-15.11-14.894-28.924-8.095-153.148 76.088-244.346 198.046-274.026 366.627-4.317 24.175-3.454 48.567-4.317 72.959zM704.002 638.275c-67.994 0-135.987 0.323-203.981 0-60.439 0-110.948-22.88-150.666-68.642-8.202-9.497-12.951-12.088-20.506 1.079-43.601 79.11-87.744 157.896-132.318 236.576-5.396 9.929 1.295 12.196 6.476 16.405 57.741 46.085 123.252 76.628 195.347 90.874 137.068 26.981 264.744 1.727 379.902-79.542 65.511-46.192 116.021-105.768 151.745-177.863 9.174-18.563 9.066-18.672-12.412-18.672h-213.694zM347.844 440.014c-2.159 79.326 63.677 150.342 141.816 152.716 84.183 2.59 153.040-61.842 158.221-142.248 5.396-85.478-68.749-157.573-147.86-158.652-81.7-1.403-150.018 64.216-152.177 148.292z" />
<glyph unicode="&#xe902;" glyph-name="camera" d="M624.29 860.5h-224.578c-0.018 0-0.040 0-0.064 0-40.496 0-75.083-25.306-88.805-60.969l-0.219-0.651-18.932-50.67h-159.804c-52.354-0.157-94.765-42.503-95.028-94.817v-522.679c0-52.34 42.688-95.214 95.028-95.214h760.225c52.246 0 95.028 42.874 95.028 95.12v522.654c0 52.246-42.688 94.936-95.028 94.936h-159.896l-18.838 50.762c-13.938 36.261-48.482 61.527-88.928 61.527-0.057 0-0.115 0-0.17 0h0.009zM624.29 789.228c9.836 0 18.746-6.218 22.272-15.404l18.932-50.484c10.355-27.327 36.313-46.4 66.727-46.4 0.032 0 0.064 0 0.095 0h159.799c12.992 0 23.757-10.764 23.757-23.664v-522.654c-0.205-13.037-10.719-23.551-23.737-23.757h-760.245c-13.006 0.204-23.5 10.666-23.757 23.64v522.772c0 12.992 10.858 23.757 23.757 23.757h159.804c0.008 0 0.016 0 0.026 0 30.43 0 56.405 19.070 66.628 45.911l0.164 0.489 18.932 50.39c3.504 9.071 12.149 15.391 22.27 15.404h224.58zM512 595.832c-112.601 0-203.884-91.281-203.884-203.884s91.281-203.884 203.884-203.884v0c112.601 0 203.884 91.281 203.884 203.884s-91.281 203.884-203.884 203.884v0zM512 524.56c73.128 0 132.706-59.392 132.706-132.706s-59.578-132.52-132.706-132.52-132.706 59.392-132.706 132.706 59.671 132.52 132.706 132.52zM844.598 567.528c0-26.241-21.273-47.514-47.514-47.514s-47.514 21.273-47.514 47.514v0c0 26.241 21.273 47.514 47.514 47.514s47.514-21.273 47.514-47.514v0z" />
<glyph unicode="&#xe903;" glyph-name="record" d="M453.193 502.685h-29.894v-44.325h29.894c16.287 0 24.739 7.731 25.357 23.501-0.619 13.916-9.070 20.821-25.357 20.821zM789.231 779.76l2.886 0.206h140.703c2.475 0 4.329-2.062 4.329-4.329v-138.642c0-1.443-0.413-3.092-0.413-4.432 0-14.431 11.751-26.081 26.182-26.081s21.234 11.545 21.234 25.976v173.379c0 14.431-6.803 21.131-21.234 21.131h-173.688c-14.225 0-25.771-6.7-25.771-21.131s11.339-26.081 25.771-26.081zM173.643 700.904c-9.587 0-17.317-7.833-17.317-17.524v-469.526c0-9.587 7.731-17.317 17.317-17.317h678.26c9.277 0 17.215 7.731 17.215 17.317v469.627c0 9.587-7.833 17.524-17.317 17.524h-678.26zM270.743 375.999c-38.86 0-70.506 31.646-70.506 70.506s31.646 70.609 70.609 70.609c39.17 0 70.609-31.646 70.609-70.609s-31.542-70.506-70.712-70.506zM483.086 363.115c-3.608 14.431-5.772 29.584-6.39 45.354-1.752 14.431-6.907 21.647-15.464 21.647h-38.14v-67.002h-36.078v167.709h71.64c38.14-1.237 57.414-15.668 58.033-43.498-0.619-21.647-12.060-35.356-34.532-40.82v-1.030c16.493-1.648 26.389-14.122 30.099-37.108 0-1.752 0.206-3.504 1.030-5.36 1.030-20.616 4.123-33.809 8.865-39.892h-39.068zM659.558 363.115h-115.242v167.709h112.356v-28.141h-76.072v-38.964h70.712v-28.038h-70.712v-44.325h78.958v-28.243zM748.206 385.792c20.616 0.515 31.337 11.132 32.573 31.646h38.14c-2.475-36.799-26.081-55.662-70.816-56.178-45.354 1.237-68.445 29.584-69.682 85.247 1.237 56.694 24.429 86.071 69.784 87.927 44.736-1.237 68.445-20.616 70.816-58.033h-38.14c-1.030 19.997-11.955 30.511-32.573 31.748-19.894-1.030-30.511-21.647-31.646-61.641 1.030-39.892 11.751-60.198 31.748-60.817zM234.357 115.931c-1.030 0-1.856 0-2.784-0.206h-140.703c-2.371 0-4.329 2.062-4.329 4.432v138.642c0.309 1.443 0.515 3.092 0.515 4.432 0 14.431-11.751 26.182-26.182 26.182s-21.029-11.751-21.029-26.182v-173.483c0-14.225 6.7-20.925 21.029-20.925h173.483c14.431 0 26.081 6.803 26.081 21.234s-11.751 26.081-26.081 26.081zM962.816 289.309c-14.431 0-26.081-11.647-26.081-26.182 0-1.443 0.413-3.092 0.619-4.432v-138.642c0-2.371-2.062-4.329-4.432-4.329h-140.806c-1.030 0-1.752 0.309-2.784 0.309-14.225 0-25.771-11.545-25.771-25.976s11.545-21.234 25.771-21.234h173.584c14.431 0 21.131 6.7 21.131 21.029v173.379c0 14.431-6.803 26.182-21.234 26.182zM60.875 606.587c14.431 0 26.182 11.545 26.182 25.976 0 1.443-0.206 3.092-0.515 4.432v138.642c0 2.371 2.062 4.329 4.329 4.329h143.485c14.431 0 26.081 11.339 26.081 25.771s-11.647 21.44-26.081 21.44h-173.483c-14.431 0-21.029-6.7-21.029-21.131v-173.483c0-14.431 6.7-26.081 21.029-26.081z" />
<glyph unicode="&#xe904;" glyph-name="console" d="M952 800h-880c-16.226 0-29.334-13.108-29.334-29.334v-645.334c0-16.226 13.108-29.334 29.334-29.334h880c16.226 0 29.334 13.108 29.334 29.334v645.334c0 16.226-13.108 29.334-29.334 29.334zM922.666 184c0-16.226-13.108-29.334-29.334-29.334h-762.664c-16.226 0-29.334 13.108-29.334 29.334v528c0 16.226 13.108 29.334 29.334 29.334h762.664c16.226 0 29.334-13.108 29.334-29.334v-528zM321.334 561.208l-113.208 113.208c-11 11-28.876 11-39.876 0s-11-28.966 0-39.966l98.726-98.45-98.726-98.542c-11-11-11-28.784 0-39.784s28.966-11 39.966 0l113.116 113.208c2.2 1.192 4.4 2.292 6.416 4.216 5.684 5.866 8.25 13.476 7.884 21.084 0.366 7.608-2.2 15.216-7.976 21.084-2.016 1.834-4.216 2.75-6.416 4.126zM600 448h-176c-16.226 0-29.334-13.108-29.334-29.334s13.108-29.334 29.334-29.334h176c16.226 0 29.334 13.108 29.334 29.334s-13.108 29.334-29.334 29.334z" />
<glyph unicode="&#xe905;" glyph-name="contact" d="M237.715 255.145q0 16.071-11.25 27.321t-27.321 11.25h-128.571q-16.071 0-27.321-11.25t-11.25-27.321 11.25-27.321 27.321-11.25h128.571q16.071 0 27.321 11.25t11.25 27.321zM70.571 600.144h128.571q16.071 0 27.321 11.25t11.25 27.321-11.25 27.321-27.321 11.25h-128.571q-16.071 0-27.321-11.25t-11.25-27.321 11.25-27.321 27.321-11.25zM914.856 928h-737.144q-32.144 0-54.644-22.5t-22.5-54.644v-60q0-16.071 11.25-27.321t27.321-11.25 27.321 11.25 11.25 27.321v60h737.144v-805.715h-737.144v60q0 16.071-11.25 27.321t-27.321 11.25-27.321-11.25-11.25-27.321v-60q0-32.144 22.5-54.644t54.644-22.5h737.144q32.144 0 54.644 22.5t22.5 54.644v805.715q0 32.144-22.5 54.644t-54.644 22.5zM70.571 408.356h128.571q16.071 0 27.321 11.25t11.25 27.321-11.25 27.321-27.321 11.25h-128.571q-16.071 0-27.321-11.25t-11.25-27.321 11.25-27.321 27.321-11.25zM580.035 370.856q-72.321 0-123.75 51.429t-51.429 124.285 51.429 124.285 123.75 51.429 124.285-51.429 51.965-124.285-51.965-124.285-124.285-51.429zM580.571 645.144q-40.715 0-69.644-28.929t-28.929-69.644 28.929-69.644 69.644-28.929 69.644 28.929 28.929 69.644-28.929 69.644-69.644 28.929zM782 173.715q-13.929 0-24.644 8.571t-12.856 22.5q-11.785 58.929-57.856 97.5t-106.606 38.571-106.606-38.571-57.856-97.5q-2.144-13.929-12.856-22.5t-24.644-8.571q-3.215 0-7.5 1.071-15 2.144-24.106 15.535t-5.894 29.465q16.071 85.715 83.571 141.965t155.894 56.25 155.894-56.25 84.644-141.965q2.144-16.071-6.429-29.465t-24.644-15.535q-3.215-1.071-7.5-1.071z" />
<glyph unicode="&#xe906;" glyph-name="device" d="M808.746 863.362v-830.535c-0.283-2.818-0.752-5.637-0.94-8.455-1.503-14.656-6.2-27.998-17.099-38.52-13.717-12.966-30.628-17.851-49.137-17.851h-460.271c-5.262 0-10.711 0.283-15.973 0.94-25.366 3.57-42.465 18.791-47.727 43.594-1.878 8.925-2.161 18.414-2.161 27.621-0.188 269.83 0 539.659 0 809.489 0 7.329 0 14.563 0.94 21.796 1.409 14.281 6.577 27.246 16.911 37.394 14.187 13.717 31.568 19.166 50.828 19.166h454.069c4.885 0 9.77-0.188 14.656-0.94 27.716-3.195 47.164-21.045 52.895-48.573l2.818-15.032zM278.858 166.707h464.685v661.891h-464.593v-661.891zM445.435 894.835v-32.414h131.533v32.506h-131.533zM478.319 67.119c0-18.226 14.844-33.165 32.883-33.165s33.258 15.221 33.165 33.258c0 18.039-15.221 33.352-33.165 33.258-18.039 0-33.072-15.032-32.883-33.258zM412.083 878.581c0 9.396-7.046 16.536-16.253 16.63-9.396 0.188-16.724-7.046-16.724-16.442 0-9.207 7.046-16.442 16.159-16.63 9.396 0 16.911 7.14 16.911 16.536z" />
<glyph unicode="&#xe907;" glyph-name="dialog" d="M37.334 854.857v-813.714h949.334v813.714h-949.334zM918.857 108.952h-813.714v406.857h813.714v-406.857z" />
<glyph unicode="&#xe908;" glyph-name="file" d="M911.301 29.062c0-34.776-26.183-61.062-61.062-61.062h-676.377c-34.98 0-61.163 26.183-61.163 61.062v837.878c0 34.776 30.684 61.062 61.163 61.062h397.051c34.98 0 78.552-17.387 100.439-43.572l196.377-196.377c21.683-21.887 43.469-69.856 43.469-100.439v-558.449zM832.749 50.846v480h-257.439c-34.776 0-61.062 26.286-61.062 61.163v257.439h-318.602v-798.602h637.205zM754.301 386.938c0-13.093-8.796-21.887-21.887-21.887h-436.327c-13.297 0-21.887 8.693-21.887 21.786v39.276c0 13.093 8.693 21.786 21.786 21.786h440.827c12.99 0 21.683-8.693 21.683-21.786v-39.276zM754.301 229.837c0-13.093-8.796-21.887-21.887-21.887h-436.327c-13.297 0-21.887 8.796-21.887 21.887v39.173c0 13.297 8.693 21.887 21.786 21.887h440.827c12.99 0 21.683-8.693 21.683-21.786v-39.173zM828.352 609.602c-4.397 8.592-8.796 21.683-13.093 26.082l-196.377 196.377c-4.397 0-13.093 8.693-26.183 8.693v-235.653h235.755z" />
<glyph unicode="&#xe909;" glyph-name="geo" d="M512.047-32s-341.312 435.494-341.312 622.133 152.95 337.867 341.312 337.867c188.555 0 341.216-151.226 341.216-337.867s-341.216-622.133-341.216-622.133zM508.411 733.894c-80.112 0-145.196-64.415-145.196-143.857s65.085-143.953 145.292-143.953c80.399 0 145.484 64.415 145.484 143.857s-65.085 143.761-145.484 143.761z" />
<glyph unicode="&#xe90a;" glyph-name="global" d="M512 928c132.468 0 252.468-53.718 339.844-141.094 87.375-86.438 140.156-206.438 140.156-338.906s-53.718-252.468-140.156-339.844c-86.438-86.438-206.438-140.156-339.844-140.156-132.468 0-252.468 53.718-338.906 140.156-87.375 87.375-141.094 207.375-141.094 339.844s53.718 252.468 140.156 338.906c87.375 87.375 207.375 141.094 339.844 141.094zM489.875 43v154.312c-43.125-1.875-85.312-11.532-124.688-25.875-5.812-1.875-11.625-3.75-16.406-6.562 2.812-6.75 6.562-13.5 10.5-20.25 24-44.062 53.718-77.812 85.312-97.875 15.468-1.875 30-3.75 45.188-3.75zM799.062 734.875c-2.812 3.75-6.75 6.562-9.656 9.562-18.282-13.406-37.5-24.938-56.718-35.625 25.968-68.062 42.188-150.562 45-238.875h140.344c-5.812 103.594-49.968 196.875-119.062 264.938zM753.875 774.25c-24.938 19.125-52.782 34.5-82.5 48 11.532-15.375 22.032-31.688 31.688-49.968 3.75-7.5 7.688-14.25 11.532-21.938 14.438 6.562 26.906 14.344 39.375 24zM579.218 848.312c-14.438 2.812-29.812 3.75-45 4.688v-155.438c43.125 1.875 85.312 11.532 124.688 25.968 5.625 1.875 10.5 3.75 16.312 6.562-2.812 6.75-6.562 13.5-10.5 20.25-24 44.062-52.782 78.75-85.312 97.875zM489.875 853c-15.282 0-29.718-1.875-45-4.688-32.812-20.156-61.5-53.718-85.5-97.875-3.75-6.75-6.75-13.5-10.594-20.156 5.625-1.875 10.5-4.688 16.218-6.562 39.375-14.532 80.625-23.156 124.688-26.062v155.625zM352.625 821.5c-29.718-12.468-57.562-28.782-82.5-48 12.468-8.438 25.875-17.156 39.375-23.906 3.75 7.688 7.5 15.375 11.438 22.125 9.656 18.282 20.156 35.625 31.688 49.968zM234.5 744.625l-9.562-9.375c-69.188-68.438-113.25-161.625-118.125-265.218h140.25c1.875 88.312 18.188 169.875 45 239.062-20.062 10.5-39.375 22.032-57.468 35.438zM107 425.875c5.625-103.5 49.688-196.688 117.844-264.75l9.656-9.562c18.282 13.406 36.562 24.938 56.718 35.625-25.968 69-42.188 150.562-45 238.875h-139.406zM270.125 121.75c24.938-19.125 52.782-34.5 82.5-48-11.532 15.375-22.032 31.688-31.688 49.968-3.75 7.5-7.688 14.25-11.532 21.938-14.438-6.562-26.906-14.344-39.375-24zM534.125 43c15.282 0.938 29.718 2.812 45 4.875 32.812 20.156 61.5 53.718 85.5 97.875 3.75 6.75 6.75 13.5 10.594 20.156-5.625 1.875-10.5 4.688-16.218 6.562-39.375 14.532-80.625 23.156-124.688 26.062v-155.625zM671.375 74.875c29.718 12.375 57.562 28.688 82.5 47.812-12.468 8.718-25.875 17.344-39.375 25.032-3.75-7.688-7.5-15.375-11.438-22.125-9.656-19.218-20.156-36.562-31.688-50.906zM789.5 151.562l9.562 9.562c68.156 69.188 112.312 162.188 118.125 264.938h-139.406c-2.812-88.312-19.125-169.875-45-239.062 19.125-10.5 38.438-22.032 56.532-35.438zM692.375 689.875c-5.625-2.812-12.468-4.688-18.188-7.5-44.062-16.5-91.125-26.062-140.062-29.062v-183.188h198.75c-1.875 81.562-16.406 156.562-40.312 219.75zM489.875 653.312c-49.032 2.062-96.094 12.562-140.25 29.062-5.812 2.812-12.562 4.688-18.282 7.5-24-63.282-38.438-138.188-40.312-219.75h198.75v183.188zM489.875 242.688v183.094h-198.75c1.875-81.562 17.25-156.562 40.312-219.75 5.625 2.812 12.468 4.688 18.188 7.5 44.062 16.5 91.125 26.062 140.062 29.062zM533.938 242.688c49.032-2.062 96.094-12.562 140.25-29.062 5.812-2.812 12.562-4.688 18.282-7.5 24 62.344 38.438 138.188 40.312 219.75h-198.75v-183.188z" />
<glyph unicode="&#xe90b;" glyph-name="media" d="M681.236 874.37l-2.156 2.062-47.067 46.879c-2.532 2.625-7.501 4.688-11.251 4.688h-389.663c-54.38 0-98.822-44.255-98.822-98.446v-436.635h77.352v436.635c0 11.439 9.845 21.284 21.564 21.284h341.565v-142.515c0-54.38 44.255-98.446 98.728-98.446h142.983v-543.523c0-11.439-9.845-21.284-21.564-21.284h-561.617c-11.719 0-21.564 9.845-21.564 21.376v54.38h-77.445v-54.38c0-54.194 44.349-98.446 98.822-98.446h561.805c54.38 0 98.822 44.255 98.822 98.446v591.246c0 3.75-2.062 8.719-4.688 11.251l-47.067 46.879c-0.656 0.938-1.312 1.594-2.062 2.344l-156.578 156.39zM650.014 708.415v98.446c0 3.75 2.156 4.688 4.688 2.062l117.48-117.198c2.625-2.625 1.875-4.688-1.875-4.688h-98.916c-11.533 0-21.376 9.751-21.376 21.376zM132.275 395.449h77.352v-278.465h-77.352zM671.953 567.964l-195.768-60.006c-23.72-6.751-42.942-31.503-42.942-55.318v-206.269s-14.063 9.375-45.755 4.969c-46.411-6.563-84.009-42.192-84.009-79.695 0-37.222 37.504-60.006 84.009-53.444 46.411 6.563 80.445 40.972 80.445 78.382v176.36c0 16.502 19.876 23.626 19.876 23.626l173.266 54.194s19.034 6.563 19.034-11.251v-141.577s-17.626 10.125-49.223 6.283c-46.411-5.625-84.009-40.504-84.009-77.82 0-37.504 37.504-60.944 84.009-55.318 46.411 5.625 84.009 40.316 84.009 77.82v288.122c0 23.908-19.22 37.504-42.942 30.941z" />
<glyph unicode="&#xe90c;" glyph-name="motion" d="M392.094 487.927l159.958 319.916h-120.157l-39.8-159.958h-40.052l-40.052 160.21h-119.779l159.833-320.167h40.052zM939.682 807.343l-68.213 68.339-759.364-759.364v811.682h-80.105v-960h960v80.105h-811.682l759.364 759.238zM711.885 207.811v40.052h-79.854v100.129c0 11.015-8.762 20.025-20.025 20.025h-40.052c-10.889 0-20.025-9.014-20.025-20.025v-100.129h-39.8v-40.052h40.052v-79.605c0-11.015 28.786-40.052 40.052-40.052h119.779v40.052s-80.105-7.259-80.105 0v80.105h80.105zM972.224 567.906h-220.539v-40.052h160.21v-40.052h-140.181c-11.015 0-20.025-8.762-20.025-20.025v-119.779c0-11.015 9.014-20.025 20.025-20.025h200.262c10.889 0 19.776 9.014 19.776 20.025v200.010c0 11.015-8.762 20.025-20.025 20.025zM912.146 367.895h-80.105v80.105h80.105v-80.105z" />
<glyph unicode="&#xe90d;" glyph-name="network" d="M793.914 732.684v-559.481c0-36.503 25.312-67.356 60.837-67.356 43.455 0 80.065-6.518 106.464 13.471 6.518 4.671 19.881 21.401 19.881 30.744v601.414c0 20.967-30.201 46.389-67.356 46.389h-48.343c-39.979 0-71.483-26.291-71.483-65.182zM543.504 608.621v-439.655c0-33.678 27.702-63.009 61.054-63.009 42.694 0 90.385-7.821 113.851 20.641 9.235 10.863 16.296 28.788 16.296 48.669v427.161c0 39.545-28.245 69.527-63.009 69.527h-65.182c-34.112 0-63.009-29.006-63.009-63.227zM293.205 484.447v-319.72c0-27.702 27.594-58.881 61.054-58.881 31.179 0 74.091-4.345 96.143 6.953 5.758 2.933 5.106 3.042 9.778 7.061 17.382 15.427 24.443 31.287 24.443 59.75v296.471c0 22.814-9.995 44.975-22.814 55.079-24.443 19.555-53.993 16.296-88.648 16.296-23.9 0-43.021-3.802-56.274-15.208-12.277-10.32-23.9-26.074-23.9-47.8zM43.015 362.447v-195.546c0-31.939 29.767-61.054 56.709-61.054h75.828c19.229 0 34.981 13.797 44.541 24.66 10.646 11.95 14.123 33.243 14.123 55.187v155.678c0 92.341-66.595 80.065-128.193 80.065-9.018 0-17.382-2.173-24.552-4.997-20.315-7.93-38.566-32.264-38.566-53.884z" />
<glyph unicode="&#xe90e;" glyph-name="orient" d="M967.367 394.829l-107.221 107.613-59.088-59.088 92.448-92.448-236.062-236.16-472.32 472.32 236.16 235.965 87.362-87.46 59.088 59.088-102.428 102.231c-11.32 11.268-26.931 18.236-44.171 18.236s-32.85-6.967-44.173-18.238l-265.801-265.702c-11.298-11.325-18.285-26.955-18.285-44.219s6.986-32.895 18.285-44.22l501.864-501.864c11.325-11.298 26.955-18.285 44.219-18.285s32.895 6.986 44.22 18.285l265.703 265.9c11.334 11.271 18.348 26.877 18.348 44.12 0 17.146-6.937 32.673-18.156 43.928l0.002-0.002zM350.064 72.971c-136.179 64.568-234.203 197.224-248.976 354.142h-62.611c21.228-257.095 236.259-459.113 498.735-459.113 9.392 0 18.392 0.783 27.784 1.467l-159.364 159.266-55.568-55.762zM664.586 552.335h208.669c23.071 0 41.774 18.703 41.774 41.774v0 166.897c0 23.071-18.703 41.774-41.774 41.774v0 20.837c0 57.719-46.762 104.385-104.385 104.385s-104.287-46.762-104.287-104.385v-20.837c-23.071 0-41.774-18.703-41.774-41.774v0-166.897c0-23.071 18.703-41.774 41.774-41.774v0zM697.847 823.615c0 39.133 31.794 71.025 71.025 71.025s71.121-31.893 71.121-71.121v-20.74h-142.147v20.837z" />
<glyph unicode="&#xe90f;" glyph-name="splash" d="M673.198 259.972h-63.823l4.463 53.715h-31.296l-4.515-53.715h-132.056l-4.515 53.715h-31.296l4.463-53.715h-63.823l-35.81 232.817 89.526 143.24h214.965l89.526-143.24-35.81-232.817zM601.526 564.46h-57.563l3.848-26.934h-71.621l3.848 26.884h-57.563l-35.913-71.672 17.955-143.293h214.965l17.955 143.293-35.913 71.621zM570.23 397.055c-4.976 0-8.979 14.878-8.979 33.347 0 18.367 4.002 33.245 8.979 33.245 4.926 0 8.926-14.878 8.926-33.347 0-18.315-4.104-33.245-8.979-33.245zM457.156 394.285c-4.875 0-8.926 14.878-8.926 33.347 0 18.367 4.104 33.245 8.979 33.245 4.976 0 8.979-14.878 8.979-33.245 0-18.469-4.002-33.347-8.926-33.347zM150.154 928v-960h723.694v960h-723.694zM215.823 862.331h592.356v-828.662h-592.356v828.662z" />
<glyph unicode="&#xe910;" glyph-name="transfer" d="M714.637-28.336c-6.598 0-20.322 0-27.053 6.598-26.922 13.725-40.382 33.916-40.382 60.969v810.808c0 40.514 27.053 67.567 67.567 67.567s67.567-27.053 67.567-67.567v-648.62l87.89 87.758c26.922 27.053 67.567 27.053 94.489 0 27.053-26.922 27.053-67.567 0-94.489l-202.834-202.702c-13.461-13.592-26.922-20.322-47.244-20.322zM309.232-28.336c-40.514 0-67.567 27.053-67.567 67.567v648.62l-87.89-87.758c-26.922-27.053-67.567-27.053-94.489 0s-27.053 67.567 0 94.489l202.702 202.702c20.192 20.322 47.244 27.053 74.297 13.592 26.922-6.598 40.382-33.783 40.382-60.705v-810.941c0-40.514-27.053-67.567-67.567-67.567z" />
<glyph unicode="&#xe911;" glyph-name="vibration" d="M42.858 330.657h78.32v234.594h-78.506v-234.594zM160.156 252.428h78.32v391.052h-78.506v-391.052zM903.098 565.25v-234.594h78.229v234.594h-78.229zM785.8 252.428h78.229v391.052h-78.229v-391.052zM688.084 799.937h-351.891c-31.402 0-58.649-27.431-58.649-58.649v-586.485c0-31.402 27.338-58.74 58.649-58.74h351.891c31.402 0 58.649 27.338 58.649 58.649v586.485c0 31.402-27.338 58.74-58.649 58.74zM668.504 174.292h-312.729v547.324h312.729v-547.324z" />
<glyph unicode="&#xe912;" glyph-name="whitelist" d="M835.298 928h-735.406c-17.814 0-32.462-14.515-32.462-32.462v-894.68c0-17.947 14.779-32.595 32.595-32.595h444.173l-50.936 54.104h-371.86v851.531h692.256v-373.047l54.104-25.864v420.421c0 17.947-14.515 32.595-32.462 32.595zM680.379 721.881c0-17.683-14.252-31.935-31.935-31.935h-394.029c-17.551 0-31.669 14.252-31.669 31.935 0 17.551 14.119 31.935 31.669 31.935h394.029c17.683 0 31.935-14.515 31.935-31.935zM539.711 534.63c0-17.683-14.515-31.935-31.935-31.935h-253.362c-17.551 0-31.669 14.252-31.669 31.935 0 17.551 14.119 31.935 31.669 31.935h253.362c17.551 0 31.935-14.515 31.935-31.935zM442.325 351.736c0-17.683-14.515-31.935-31.935-31.935h-155.976c-17.551 0-31.669 14.252-31.669 31.935 0 17.551 14.119 31.669 31.669 31.669h155.976c17.551 0 31.935-14.119 31.935-31.669zM837.41 306.342c-7.654 7.917-20.057 8.181-27.711 0.264l-134.597-135.126-69.675 71.522c-7.258 7.39-19.397 6.994-27.051-0.923-7.917-7.917-8.181-20.453-0.923-27.975l84.981-87.356c7.258-7.39 19.266-6.994 27.051 0.923 1.716 1.847 3.035 3.959 3.959 6.071l2.376 1.716 141.195 141.855c7.917 7.917 7.917 20.717 0.396 28.767zM675.1 116.189c-6.334 0-12.14 2.639-16.495 6.994l-84.85 87.356c-9.237 9.5-8.841 25.335 0.793 35.365 4.882 4.882 11.613 7.917 18.474 7.917 6.202 0 11.876-2.639 16.364-6.994l65.715-67.563 130.638 131.167c4.751 4.751 11.085 7.39 17.683 7.39s13.196-2.639 17.947-7.917c9.633-10.029 9.237-26.391-0.396-36.157l-141.195-141.987-1.979-1.583c-1.32-2.376-2.639-4.486-4.486-6.202-4.882-5.015-11.48-7.917-18.21-7.917zM592.759 242.871c-3.959 0-7.654-1.583-10.556-4.618-5.675-5.805-6.071-14.911-0.923-20.19l84.981-87.356c2.243-2.376 5.278-3.695 8.71-3.695 3.959 0 7.654 1.716 10.556 4.618 1.32 1.32 2.112 2.639 3.035 4.486l0.396 1.32 1.32 1.056c0.66 0.396 1.056 0.66 1.32 1.056l141.46 141.855c5.675 5.805 5.805 15.308 0 21.113-2.639 2.903-6.202 4.486-10.029 4.486-3.959 0-7.39-1.32-10.029-3.959l-138.556-139.085-73.368 75.217c-2.243 2.639-5.278 3.959-8.71 3.959zM707.695 411.776c51.992 0 100.948-20.322 137.633-57.007 36.948-36.948 57.137-85.773 57.137-137.765 0-52.125-20.453-101.081-57.27-137.896-36.684-36.684-85.773-57.007-137.633-57.007s-100.948 20.322-137.765 57.007c-36.948 36.948-57.137 85.773-57.137 137.765 0 51.859 20.322 100.816 57.007 137.633 36.684 36.684 85.773 57.007 137.633 57.007zM707.299 465.617c-137.236 0.264-248.478-111.241-248.478-248.478s111.241-249.137 248.874-249.137c137.236 0 248.874 111.374 248.874 248.874s-111.638 248.743-249.007 248.743z" />
<glyph unicode="&#xe913;" glyph-name="statusbar" d="M0.002 447.929v109.99h1024v-219.838h-1024v109.848zM364.775 396.8v12.89h-32.51v-25.778h32.653v12.89zM412.894 409.691v25.063h-31.937v-50.984h31.937v25.493zM461.158 428.737v44.684h-32.369v-89.51h16.181l16.040 0.284v44.827zM509.279 447.642v64.448h-31.794v-128.036h31.794v63.875zM716.943 387.491c12.89 2.864 21.483 11.457 26.495 26.209 3.724 10.74 5.299 26.781 4.296 42.106-0.428 9.596-1.003 13.749-2.864 20.337-5.299 21.913-17.184 32.369-37.236 32.51-7.447 0-12.030-1.146-17.616-3.724-13.607-6.588-20.766-21.483-22.628-47.263-1.862-22.342 1.862-44.398 9.309-55.855 4.296-6.872 12.030-12.46 19.334-14.322 5.729-1.431 14.895-1.431 20.91-0.284zM703.337 401.813c-2.864 0.575-6.872 2.864-8.593 4.869-3.151 3.867-5.729 10.598-7.163 20.051-0.716 5.729-0.716 34.945 0 41.246 2.148 13.463 5.729 20.766 12.030 24.060 2.29 1.431 2.864 1.431 7.734 1.431 4.296 0 5.729-0.284 7.59-1.146 8.593-4.296 12.604-15.754 13.319-39.669 0.428-10.884-0.284-22.628-1.431-29.646-2.29-11.457-6.588-18.618-12.89-20.48-2.864-1.146-7.59-1.431-10.312-0.859zM630.298 448.645v60.581h-7.163l-7.163-0.284-1.431-3.293c-3.58-11.171-12.317-17.184-26.495-17.759l-5.157-0.428v-14.751h2.864c7.447 0 16.472 1.862 21.483 4.583 1.862 0.716 3.437 1.431 3.58 1.719 0.284 0 0.428-20.337 0.428-45.401v-45.543h18.905v61.010zM789.266 398.089v10.025h-20.48v-9.737c0-5.442 0-10.025 0.428-10.025 0-0.284 4.726-0.428 10.025-0.428h10.025v10.025zM890.236 396.659v9.452h-55.282l1.003 1.431c1.431 2.864 7.447 8.593 18.618 17.902 12.317 10.312 24.775 22.916 28.214 27.927 3.151 4.726 5.299 9.737 6.16 14.61 3.151 17.902-5.157 32.94-21.483 38.669-8.593 2.864-20.051 3.437-29.073 1.003-1.719-0.575-5.157-1.862-7.734-3.151-4.010-2.005-5.442-2.864-9.025-6.588-4.583-4.726-7.163-8.593-8.878-14.61-0.859-2.864-2.148-8.307-2.148-9.596 0 0 4.296-0.428 9.596-0.428 7.163 0 9.452 0 9.596 0.716l0.716 3.437c1.146 6.445 4.869 11.457 10.312 14.322 3.293 1.431 3.58 1.719 9.596 1.719 5.729 0 6.445 0 9.309-1.431 8.163-3.867 11.743-12.604 9.452-23.488-1.862-9.309-7.163-15.754-28.93-33.372-19.19-15.754-27.211-24.922-30.648-35.375-1.146-3.437-2.29-10.312-1.862-11.171 0.428-0.284 14.895-0.428 41.531-0.428h40.819v8.593zM971.153 402.386v13.749h15.613v15.754h-15.754v77.337h-16.9l-52.99-77.337v-15.322h50.984v-13.607c0-7.447 0-13.749 0.284-14.035s4.296-0.428 9.452-0.284h9.025v14.035zM921.457 436.185l16.472 24.347c7.447 10.884 13.749 20.051 14.322 20.48 0.575 0.716 0.575 0.284 0.284-4.010l-0.284-25.063v-20.051h-34.228l3.293 4.726zM789.124 464.398v10.025h-20.48v-9.596c0-5.299 0-10.025 0.428-10.025 0 0 4.726-0.284 10.025-0.284h10.025v10.025z" />
</font>
</defs>
</svg>
